Coordinates
version=1
nRows=10
nColumns=63
inDegrees=yes

Units are S.I. units (second, meters, Newtons, ...)
If the header above contains a line with 'inDegrees', this indicates whether rotational values are in degrees (yes) or radians (no).

endheader
time	pelvis_tilt	pelvis_list	pelvis_rotation	pelvis_tx	pelvis_ty	pelvis_tz	hip_flexion_r	hip_adduction_r	hip_rotation_r	knee_angle_r	knee_angle_r_beta	ankle_angle_r	subtalar_angle_r	mtp_angle_r	hip_flexion_l	hip_adduction_l	hip_rotation_l	knee_angle_l	knee_angle_l_beta	ankle_angle_l	subtalar_angle_l	mtp_angle_l	L5_S1_Flex_Ext	L5_S1_Lat_Bending	L5_S1_axial_rotation	L4_L5_Flex_Ext	L4_L5_Lat_Bending	L4_L5_axial_rotation	L3_L4_Flex_Ext	L3_L4_Lat_Bending	L3_L4_axial_rotation	L2_L3_Flex_Ext	L2_L3_Lat_Bending	L2_L3_axial_rotation	L1_L2_Flex_Ext	L1_L2_Lat_Bending	L1_L2_axial_rotation	L1_T12_Flex_Ext	L1_T12_Lat_Bending	L1_T12_axial_rotation	Abs_r3	Abs_r2	Abs_r1	Abs_t1	Abs_t2	neck_flexion	neck_bending	neck_rotation	arm_flex_r	arm_add_r	arm_rot_r	elbow_flex_r	pro_sup_r	wrist_flex_r	wrist_dev_r	arm_flex_l	arm_add_l	arm_rot_l	elbow_flex_l	pro_sup_l	wrist_flex_l	wrist_dev_l
      1.55000000	      4.58388941	     -2.59409093	     91.23981449	      0.22338029	      1.08731856	      0.47924529	      0.82438850	      3.12496287	     -2.01979420	      7.90033161	      0.13788680	     25.51432673	     16.26373603	      0.00000000	     -1.23966173	     -5.32133947	      6.78319528	      3.31522987	      0.05786168	     16.23685220	    -10.90042494	      0.00000000	     -0.13074667	      0.86529568	      0.62005027	     -0.24280964	      1.15084325	      0.65880341	     -0.21480370	      2.10387991	      0.65880341	     -0.14943037	      2.10387991	      0.54254398	     -0.12141136	      1.76451094	      0.50379084	     -0.07470865	      1.34034300	      0.46503770	     -0.93391038	      9.78839775	      3.44853358	      0.00000000	      0.00000000	     22.10327852	     -4.08676185	     13.59969666	      2.09095404	    -18.14608532	     37.62068554	     26.08248138	     84.30073279	     -1.78757204	      9.24306498	     15.21303594	     -9.37762039	    113.53834291	     16.22983663	     24.27653207	      0.98667587	    -10.00397976
      1.56666667	      4.67474654	     -2.57486947	     91.28666576	      0.22311530	      1.08719055	      0.47924606	      0.77816579	      3.22951313	     -1.64012165	      7.77328258	      0.13566937	     25.47646628	     15.92833668	      0.00000000	     -1.23050578	     -5.42539623	      6.46492087	      3.27029879	      0.05707748	     16.60824349	    -10.37295275	      0.00000000	     -0.13243780	      0.88042412	      0.61576105	     -0.24595023	      1.17096408	      0.65424611	     -0.21758206	      2.14066320	      0.65424611	     -0.15136316	      2.14066320	      0.53879092	     -0.12298174	      1.79536086	      0.50030585	     -0.07567496	      1.36377696	      0.46182078	     -0.94598993	      9.95953371	      3.42467821	      0.00000000	      0.00000000	     22.11744499	     -4.17885213	     13.64436028	      1.75898871	    -18.28061806	     36.59880399	     26.60174785	     84.75140745	     -1.83025802	      9.79551627	     15.04288817	     -9.41248365	    111.51158493	     16.42188987	     24.55480248	      0.93290225	     -9.46455141
      1.58333333	      4.75478646	     -2.52589682	     91.35218999	      0.22288600	      1.08712686	      0.47939012	      0.71664032	      3.31762220	     -1.43635812	      7.67342421	      0.13392652	     25.46375662	     15.76336294	      0.00000000	     -1.21305436	     -5.53254503	      6.01043861	      3.27478257	      0.05715574	     17.11429214	     -9.58001577	      0.00000000	     -0.13719494	      0.89213960	      0.63752945	     -0.25478473	      1.18654566	      0.67737504	     -0.22539757	      2.16914821	      0.67737504	     -0.15680010	      2.16914821	      0.55783827	     -0.12739922	      1.81925106	      0.51799268	     -0.07839319	      1.38192423	      0.47814709	     -0.97996977	     10.09206153	      3.54574755	      0.00000000	      0.00000000	     22.10080599	     -4.28281677	     13.46301794	      1.45397402	    -18.41234889	     35.77051659	     26.97802489	     85.20799736	     -1.84006319	     10.34374526	     15.00448234	     -9.43106829	    110.00795972	     16.66239127	     24.82715582	      0.76786937	     -8.98534681
      1.60000000	      4.83724145	     -2.44326944	     91.41131889	      0.22261409	      1.08710805	      0.47963635	      0.62365456	      3.41372379	     -1.12508517	      7.58066143	      0.13230750	     25.47800883	     15.43597503	      0.00000000	     -1.25332472	     -5.62949395	      5.88341161	      3.22828862	      0.05634427	     17.50075538	     -9.26593433	      0.00000000	     -0.14458466	      0.90226452	      0.67796698	     -0.26850818	      1.20001181	      0.72033991	     -0.23753814	      2.19376596	      0.72033991	     -0.16524581	      2.19376596	      0.59322110	     -0.13426132	      1.83989781	      0.55084817	     -0.08261568	      1.39760774	      0.50847523	     -1.03275379	     10.20659672	      3.77064893	      0.00000000	      0.00000000	     22.03568589	     -4.41244857	     13.05884362	      1.31584625	    -18.60131506	     35.72530789	     27.10298211	     85.35202604	     -1.80450122	     10.73711540	     15.31547742	     -9.22592693	    111.75191262	     16.62476781	     22.76844421	      0.97973598	     -8.95583247
      1.61666667	      4.87907721	     -2.40009534	     91.39443039	      0.22250408	      1.08708010	      0.47996758	      0.61677011	      3.45685654	     -1.02837436	      7.57105302	      0.13213980	     25.57556575	     15.44942987	      0.00000000	     -1.20936124	     -5.69801529	      4.91868275	      3.31781573	      0.05790681	     18.21186666	     -7.85697391	      0.00000000	     -0.14726691	      0.90558583	      0.72939378	     -0.27348938	      1.20442915	      0.77498089	     -0.24194481	      2.20184139	      0.77498089	     -0.16831135	      2.20184139	      0.63821955	     -0.13675205	      1.84667063	      0.59263244	     -0.08414831	      1.40275245	      0.54704533	     -1.05191281	     10.24416803	      4.05666936	      0.00000000	      0.00000000	     21.90430631	     -4.32874430	     12.78587514	      1.33604941	    -18.76350677	     36.18111758	     27.00779636	     85.28146569	     -1.71691078	     11.04034864	     15.32426503	     -9.18510985	    110.91802718	     16.55844548	     24.01424362	      1.17850366	     -8.69242724
      1.63333333	      4.95652589	     -2.32222432	     91.45045773	      0.22235289	      1.08708041	      0.48040789	      0.55699966	      3.54110338	     -1.01534852	      7.53029162	      0.13142838	     25.66055389	     15.42972012	      0.00000000	     -1.15534734	     -5.81898612	      4.02787933	      3.49492793	      0.06099800	     18.90014585	     -6.37294093	      0.00000000	     -0.15593884	      0.91188691	      0.78013615	     -0.28959402	      1.21280959	      0.82889465	     -0.25619192	      2.21716184	      0.82889465	     -0.17822250	      2.21716184	      0.68261913	     -0.14480480	      1.85951979	      0.63386062	     -0.08910345	      1.41251283	      0.58510211	     -1.11385552	     10.31544714	      4.33888320	      0.00000000	      0.00000000	     21.80883294	     -4.44220536	     12.26949456	      1.35978335	    -18.89268804	     36.27737968	     26.84907470	     85.27754969	     -0.98214666	     11.35633112	     15.48163147	     -9.14405233	    110.86778725	     16.60129985	     25.31023077	      0.97627177	     -8.73944128
      1.65000000	      5.00852671	     -2.17553922	     91.57270123	      0.22212838	      1.08715126	      0.48072841	      0.40841131	      3.58473721	     -1.49022401	      7.46730617	      0.13032908	     25.79013757	     15.92745287	      0.00000000	     -1.24454812	     -5.88490266	      3.96931400	      3.53435333	      0.06168610	     19.16957286	     -6.08611312	      0.00000000	     -0.17371244	      0.91400983	      0.86261965	     -0.32260137	      1.21563307	      0.91653338	     -0.28539216	      2.22232350	      0.91653338	     -0.19853594	      2.22232350	      0.75479220	     -0.16130937	      1.86384885	      0.70087847	     -0.09925929	      1.41580123	      0.64696474	     -1.24081056	     10.33946200	      4.79763173	      0.00000000	      0.00000000	     21.81646798	     -4.80301248	     11.26776124	      0.85091833	    -18.83204354	     34.31191473	     27.08573326	     85.15002944	     -0.48018960	     12.03214706	     15.98594302	     -9.01123682	    112.53132697	     16.79502665	     25.98951468	      0.33361202	     -8.54255478
      1.66666667	      5.00343926	     -2.09044644	     91.60222945	      0.22209745	      1.08727075	      0.48100667	      0.26773301	      3.62367285	     -1.00385126	      7.26752721	      0.12684228	     25.76622637	     15.33709950	      0.00000000	     -1.19203440	     -5.94743037	      2.19825348	      3.81004933	      0.06649791	     19.92011350	     -3.45857337	      0.00000000	     -0.18650363	      0.90948454	      0.88740307	     -0.34635589	      1.20961444	      0.94286576	     -0.30640681	      2.21132072	      0.94286576	     -0.21315500	      2.21132072	      0.77647768	     -0.17318727	      1.85462088	      0.72101499	     -0.10656817	      1.40879156	      0.66555230	     -1.33217678	     10.28827105	      4.93546963	      0.00000000	      0.00000000	     21.78784778	     -4.88306851	     10.82957394	      0.85923784	    -18.84689271	     34.40835511	     27.04361000	     83.15401066	     -0.36616617	     12.18309282	     16.11778191	     -9.06292398	    112.39703446	     16.98196982	     27.34902629	     -0.15997377	     -8.13318616
      1.68333333	      4.99181550	     -2.07412720	     91.63611460	      0.22202916	      1.08722295	      0.48115026	      0.32577238	      3.59013469	     -1.65758627	      7.36775432	      0.12859157	     26.01698335	     16.07950235	      0.00000000	     -1.27472416	     -5.87746507	      4.06325841	      3.64008222	      0.06353142	     19.29646419	     -6.06890862	      0.00000000	     -0.18237398	      0.90538021	      0.95870438	     -0.33868671	      1.20415568	      1.01862340	     -0.29962221	      2.20134145	      1.01862340	     -0.20843522	      2.20134145	      0.83886633	     -0.16935248	      1.84625133	      0.77894731	     -0.10420849	      1.40243395	      0.71902829	     -1.30267908	     10.24184205	      5.33202615	      0.00000000	      0.00000000	     21.68915229	     -4.93891518	     10.42153825	     -0.00962304	    -18.48444042	     30.23465742	     27.63758848	     83.47154317	      0.69577941	     13.08976091	     17.30364548	     -8.20906738	    123.72439632	     16.44209902	     18.26129950	      0.47938633	     -9.54514150
      1.70000000	      4.97031840	     -2.08321503	     91.71334326	      0.22212815	      1.08719916	      0.48123288	      0.33343837	      3.59029842	     -1.83297234	      7.29851893	      0.12738319	     26.10632604	     16.22121850	      0.00000000	     -1.19658128	     -5.88618632	      3.63651648	      3.75281485	      0.06549898	     19.45824725	     -5.34711863	      0.00000000	     -0.18234102	      0.89509906	      0.95744929	     -0.33862551	      1.19048174	      1.01728988	     -0.29956806	      2.17634384	      1.01728988	     -0.20839755	      2.17634384	      0.83776813	     -0.16932187	      1.82528599	      0.77792755	     -0.10418966	      1.38650844	      0.71808697	     -1.30244366	     10.12553953	      5.32504574	      0.00000000	      0.00000000	     21.74319816	     -4.90389390	     10.22589541	     -0.25616365	    -18.25799770	     28.94129321	     27.96565358	     81.53183885	      0.79890240	     13.58375044	     17.27088320	     -8.19942720	    124.11083472	     16.26744331	     19.07364964	      0.38305033	     -9.36586339
